Coordinates
version=1
nRows=8
nColumns=34
inDegrees=yes

Units are S.I. units (second, meters, Newtons, ...)
If the header above contains a line with 'inDegrees', this indicates whether rotational values are in degrees (yes) or radians (no).

endheader
time	pelvis_tilt	pelvis_list	pelvis_rotation	pelvis_tx	pelvis_ty	pelvis_tz	hip_flexion_r	hip_adduction_r	hip_rotation_r	knee_angle_r	ankle_angle_r	subtalar_angle_r	mtp_angle_r	hip_flexion_l	hip_adduction_l	hip_rotation_l	knee_angle_l	ankle_angle_l	subtalar_angle_l	mtp_angle_l	lumbar_extension	lumbar_bending	lumbar_rotation	arm_flex_r	arm_add_r	arm_rot_r	elbow_flex_r	pro_sup_r	arm_flex_l	arm_add_l	arm_rot_l	elbow_flex_l	pro_sup_l
      8.71666670	      4.29897618	      2.90675183	     -1.36418333	      0.07731557	      0.82313527	      0.05328182	      6.61977088	      5.88673331	      1.08077541	     35.19421933	      0.91635527	    -22.90121887	      0.00000000	     24.73519759	     -0.26191067	      5.01321510	      8.97180681	      0.09320482	     -2.11660534	      0.00000000	    -13.50484942	     -0.98729309	     -0.10933035	     55.85689575	     14.24035624	     70.56745454	    131.12193556	    100.13558078	     41.87963636	     12.68589588	     71.90759535	    133.91362826	     88.00752371
      8.73333330	      4.69690070	      2.72766620	     -1.21031580	      0.07664298	      0.81972538	      0.05464366	      7.21098905	      6.17901294	      0.86504331	     37.25035373	     -4.04643323	    -24.72696199	      0.00000000	     24.67904724	     -0.41916424	      4.90545078	      8.25204340	      0.06798082	     -1.21971172	      0.00000000	    -14.20597864	     -0.89883996	     -0.17798019	     56.03544881	     14.11224547	     70.56746628	    131.23116639	     99.87980345	     42.39087713	     12.98077354	     72.79834306	    133.92388663	     86.64189312
      8.75000000	      5.00937074	      2.71918997	     -0.95342554	      0.07747649	      0.81422636	      0.05530332	      8.03525073	      6.20098316	      0.39247849	     38.84940131	     -6.81152190	    -25.95812565	      0.00000000	     24.75160983	     -0.34791848	      5.19570190	      7.89546355	     -0.07367293	     -0.61787591	      0.00000000	    -14.80781639	     -0.91415587	     -0.35836987	     56.15315001	     14.02483047	     70.35424103	    131.12195029	     99.69228960	     42.66858403	     12.98001951	     73.67613928	    133.70595415	     85.92672683
      8.76666670	      5.30715669	      2.76946762	     -0.87392597	      0.07818722	      0.81034690	      0.05582938	      8.73603449	      6.12342638	      0.05306411	     40.69673904	     -8.62310676	    -25.56009347	      0.00000000	     24.79178786	     -0.26274326	      5.41525085	      7.47548077	     -0.20012938	     -0.35953957	      0.00000000	    -15.41897153	     -0.95475733	     -0.41232215	     56.48604708	     13.96630910	     70.24949387	    131.12480661	     99.65516154	     42.78803878	     13.07137268	     73.74038117	    133.57639568	     85.79379989
      8.78333330	      5.68638722	      2.75490236	     -0.93788371	      0.08000940	      0.80439041	      0.05669075	      9.38239052	      6.47335988	      0.21037744	     42.57729711	    -14.94287589	    -29.99652591	      0.00000000	     24.82360058	     -0.34340266	      5.30937036	      7.39456775	      0.07857705	      0.02687934	      0.00000000	    -16.22808903	     -1.25625313	     -1.00588912	     56.50272482	     13.97501536	     70.06921893	    131.12363689	     99.39419150	     43.12248974	     12.21339451	     73.42045300	    133.34274573	     84.64872113
      8.80000000	      5.90536497	      2.46849888	     -0.98821956	      0.07692009	      0.79957242	      0.05799495	     10.51771029	      7.09896905	      0.41470757	     44.19970497	    -13.48618719	    -31.57104066	      0.00000000	     25.25213826	     -0.66785552	      5.14810827	      7.39911756	      0.24007338	     -0.12605232	      0.00000000	    -17.07916751	     -1.13822737	     -1.28876503	     56.87053525	     13.91528426	     69.83816216	    131.33600658	     99.35761098	     43.66827829	     11.31606320	     72.82305056	    133.21346711	     84.46491066
      8.81666670	      5.76321924	      2.31269857	     -1.00111120	      0.07728888	      0.79532997	      0.05931806	     11.79497601	      7.70012078	      0.85376130	     45.18370239	     -9.62129730	    -34.22867619	      0.00000000	     26.09145126	     -0.85636402	      5.01577499	      7.38975968	      0.34380822	     -0.34762641	      0.00000000	    -17.35606285	     -1.21328607	     -1.67933292	     57.21214970	     14.05420604	     69.47351341	    131.29407886	     99.27812525	     43.54755407	     11.04804704	     72.14575565	    133.53667139	     84.13793397
      8.83333330	      5.76099657	      1.84028391	     -0.78634715	      0.07752757	      0.79350001	      0.06041427	     12.17396737	      8.67871197	      1.30821254	     45.42069919	     -7.04470864	    -34.98677646	      0.00000000	     26.54206503	     -1.38074378	      4.98795381	      7.15271227	     -0.54218911	     -0.09509577	      0.00000000	    -17.63609331	     -0.69939611	     -1.78157729	     57.47804456	     14.09866882	     69.27433337	    131.07736226	     99.23246384	     43.28952480	     11.44128612	     72.31858675	    133.53087852	     84.02458040
